<svg width="21" height="15" viewBox="0 0 21 15" fill="none" xmlns="http://www.w3.org/2000/svg">
<path fill-rule="evenodd" clip-rule="evenodd" d="M20.5547 7.9552C20.5547 7.9552 16.8048 0.9552 10.5547 0.9552C4.30457 0.9552 0.554688 7.9552 0.554688 7.9552C0.554688 7.9552 4.30457 14.9552 10.5547 14.9552C16.8048 14.9552 20.5547 7.9552 20.5547 7.9552ZM2.02091 7.9552C2.6253 8.89003 3.32037 9.7607 4.09566 10.5541C5.70466 12.1943 7.90447 13.6809 10.5547 13.6809C13.2049 13.6809 15.4038 12.1943 17.0147 10.5541C17.7902 9.76027 18.4854 8.8891 19.0899 7.95374C18.4854 7.01836 17.7902 6.1472 17.0147 5.35337C15.4033 3.71461 13.2044 2.22806 10.5547 2.22806C7.90495 2.22806 5.70562 3.71461 4.0947 5.35484C3.31916 6.14866 2.62392 7.01983 2.01947 7.9552H2.02091Z" fill="#292D32"/>
<path fill-rule="evenodd" clip-rule="evenodd" d="M10.5549 4.77237C9.93679 4.77237 9.33259 4.95899 8.81868 5.30862C8.30476 5.65825 7.90422 6.1552 7.66769 6.73662C7.43116 7.31804 7.36927 7.95781 7.48985 8.57504C7.61044 9.19227 7.90807 9.75923 8.34512 10.2042C8.78216 10.6492 9.339 10.9523 9.9452 11.075C10.5514 11.1978 11.1797 11.1348 11.7508 10.894C12.3218 10.6531 12.8099 10.2453 13.1533 9.72205C13.4966 9.19879 13.6799 8.5836 13.6799 7.95428C13.6799 7.11039 13.3507 6.30106 12.7646 5.70433C12.1786 5.10761 11.3837 4.77237 10.5549 4.77237ZM6.17969 7.95428C6.17969 7.07321 6.43629 6.21193 6.91704 5.47934C7.39779 4.74676 8.0811 4.17578 8.88056 3.83861C9.68002 3.50144 10.5597 3.41322 11.4084 3.58511C12.2571 3.757 13.0367 4.18127 13.6486 4.80428C14.2605 5.4273 14.6772 6.22106 14.846 7.0852C15.0148 7.94934 14.9282 8.84504 14.597 9.65905C14.2659 10.473 13.7051 11.1688 12.9856 11.6583C12.2661 12.1478 11.4202 12.409 10.5549 12.409C9.3945 12.409 8.28165 11.9397 7.46115 11.1043C6.64064 10.2688 6.17969 9.13576 6.17969 7.95428Z" fill="#292D32"/>
</svg>
