<svg width="20" height="20" viewBox="0 0 20 20" fill="none" xmlns="http://www.w3.org/2000/svg">
<path d="M16.6 6.66667H15.5333V5.33333C15.5333 2.39253 13.1408 0 10.2 0C7.25916 0 4.86663 2.39253 4.86663 5.33333V6.66667H3.79996C2.62129 6.66667 1.66663 7.62133 1.66663 8.8V17.8667C1.66663 19.0453 2.62129 20 3.79996 20H16.6C17.7786 20 18.7333 19.0453 18.7333 17.8667V8.8C18.7333 7.62133 17.7786 6.66667 16.6 6.66667ZM6.99996 5.33333C6.99996 3.56853 8.43516 2.13333 10.2 2.13333C11.9648 2.13333 13.4 3.56853 13.4 5.33333V6.66667H6.99996V5.33333ZM11.2666 13.1893V15.7333C11.2666 16.32 10.7866 16.8 10.2 16.8C9.61329 16.8 9.13329 16.32 9.13329 15.7333V13.1893C8.80263 12.9013 8.59996 12.4747 8.59996 12C8.59996 11.1147 9.31463 10.4 10.2 10.4C11.0853 10.4 11.8 11.1147 11.8 12C11.8 12.4747 11.5973 12.9013 11.2666 13.1893Z" fill="#545454"/>
</svg>
