<svg width="27" height="27" viewBox="0 0 27 27" fill="none" xmlns="http://www.w3.org/2000/svg">
<g clip-path="url(#clip0_1_5876)">
<mask id="mask0_1_5876" style="mask-type:alpha" maskUnits="userSpaceOnUse" x="0" y="0" width="27" height="27">
<rect width="27" height="27" fill="#D9D9D9"/>
</mask>
<g mask="url(#mask0_1_5876)">
<path d="M13.5 23.625L11.8688 22.1625C9.975 20.4563 8.40938 18.9844 7.17188 17.7469C5.93438 16.5094 4.95 15.3985 4.21875 14.4141C3.4875 13.4297 2.97656 12.525 2.68594 11.7C2.39531 10.875 2.25 10.0313 2.25 9.16876C2.25 7.40626 2.84063 5.93439 4.02188 4.75314C5.20313 3.57189 6.675 2.98126 8.4375 2.98126C9.4125 2.98126 10.3406 3.18751 11.2219 3.60001C12.1031 4.01251 12.8625 4.59376 13.5 5.34376C14.1375 4.59376 14.8969 4.01251 15.7781 3.60001C16.6594 3.18751 17.5875 2.98126 18.5625 2.98126C20.325 2.98126 21.7969 3.57189 22.9781 4.75314C24.1594 5.93439 24.75 7.40626 24.75 9.16876C24.75 10.0313 24.6047 10.875 24.3141 11.7C24.0234 12.525 23.5125 13.4297 22.7812 14.4141C22.05 15.3985 21.0656 16.5094 19.8281 17.7469C18.5906 18.9844 17.025 20.4563 15.1312 22.1625L13.5 23.625ZM13.5 20.5875C15.3 18.975 16.7813 17.5922 17.9438 16.4391C19.1063 15.286 20.025 14.2828 20.7 13.4297C21.375 12.5766 21.8438 11.8172 22.1062 11.1516C22.3687 10.486 22.5 9.82501 22.5 9.16876C22.5 8.04376 22.125 7.10626 21.375 6.35626C20.625 5.60626 19.6875 5.23126 18.5625 5.23126C17.6813 5.23126 16.8656 5.4797 16.1156 5.97657C15.3656 6.47345 14.85 7.10626 14.5688 7.87501H12.4313C12.15 7.10626 11.6344 6.47345 10.8844 5.97657C10.1344 5.4797 9.31875 5.23126 8.4375 5.23126C7.3125 5.23126 6.375 5.60626 5.625 6.35626C4.875 7.10626 4.5 8.04376 4.5 9.16876C4.5 9.82501 4.63125 10.486 4.89375 11.1516C5.15625 11.8172 5.625 12.5766 6.3 13.4297C6.975 14.2828 7.89375 15.286 9.05625 16.4391C10.2188 17.5922 11.7 18.975 13.5 20.5875Z" fill="#F70000"/>
<path d="M15.9107 4.33923H19.7679L23.1429 5.78566V12.5357L13.5 22.1785L7.23214 16.3928C5.94643 14.7857 3.375 11.4749 3.375 11.0892V7.23209L5.78571 4.33923L10.125 4.82138L13.5 6.74995L15.9107 4.33923Z" fill="#F70000"/>
</g>
</g>
<defs>
<clipPath id="clip0_1_5876">
<rect width="27" height="27" fill="white"/>
</clipPath>
</defs>
</svg>
