<svg width="20" height="20" viewBox="0 0 20 20" fill="none" xmlns="http://www.w3.org/2000/svg">
<path d="M1.72707 3.33331C0.770176 3.33331 0 4.07232 0 4.99024V5.04468L8.62075 10.8245C9.00308 11.0807 9.5018 11.2083 10.0008 11.2083C10.4995 11.2083 10.9982 11.0808 11.3806 10.8245L20 5.04596V4.9903C20 4.07236 19.2298 3.33337 18.2729 3.33337L1.72707 3.33331ZM0 6.42939V15.0097C0 15.9277 0.770176 16.6666 1.72707 16.6666H18.2729C19.2298 16.6666 20 15.9277 20 15.0097V6.43069L11.3806 12.2092C10.9982 12.4655 10.4995 12.593 10.0008 12.593C9.5018 12.593 9.00308 12.4655 8.62075 12.2092L0 6.42939Z" fill="#545454"/>
</svg>
