<svg width="20" height="20" viewBox="0 0 20 20" fill="none" xmlns="http://www.w3.org/2000/svg">
<g clip-path="url(#clip0_4473_3286)">
<path d="M10.2681 11.4102C11.5572 11.4102 12.7486 11.0469 13.7017 10.4297C14.44 9.95703 15.4009 10.0352 16.0494 10.625C17.8501 12.2578 18.8736 14.5742 18.8697 17.0078V18.0508C18.8697 19.1289 17.9947 20 16.9165 20H3.61967C2.54155 20 1.66655 19.1289 1.66655 18.0508V17.0078C1.65874 14.5781 2.68217 12.2578 4.48295 10.6289C5.13139 10.0391 6.09623 9.96093 6.83061 10.4336C7.78764 11.0469 8.97514 11.4102 10.2681 11.4102Z" fill="#545454"/>
<path d="M10.2681 9.67187C12.9389 9.67187 15.104 7.50675 15.104 4.83594C15.104 2.16512 12.9389 0 10.2681 0C7.59725 0 5.43213 2.16512 5.43213 4.83594C5.43213 7.50675 7.59725 9.67187 10.2681 9.67187Z" fill="#545454"/>
</g>
<defs>
<clipPath id="clip0_4473_3286">
<rect width="20" height="20" fill="white"/>
</clipPath>
</defs>
</svg>
