<svg width="26" height="26" viewBox="0 0 26 26" fill="none" xmlns="http://www.w3.org/2000/svg">
<path d="M11.0022 2.16669C6.13489 2.16669 2.16667 6.1349 2.16667 11.0022C2.16667 15.8695 6.13489 19.8377 11.0022 19.8377C13.0469 19.8377 14.9318 19.1367 16.4321 17.9636L21.9847 23.5162C22.4076 23.9391 23.0932 23.9391 23.5162 23.5162C23.939 23.0933 23.939 22.4077 23.5162 21.9847L17.9636 16.4322C19.1371 14.9323 19.8398 13.047 19.8398 11.0022C19.8398 6.13495 15.8695 2.16669 11.0022 2.16669ZM11.0022 4.33276C14.6989 4.33276 17.6738 7.30554 17.6738 11.0022C17.6738 14.6989 14.6989 17.6717 11.0022 17.6717C7.30548 17.6717 4.33266 14.6989 4.3327 11.0022C4.3327 7.30554 7.30548 4.33276 11.0022 4.33276Z" fill="#545454"/>
</svg>
