<svg width="33" height="33" viewBox="0 0 33 33" fill="none" xmlns="http://www.w3.org/2000/svg">
<path d="M28.7897 10.0352C28.81 10.3195 28.81 10.6038 28.81 10.888C28.81 19.558 22.2111 29.5479 10.1502 29.5479C6.43441 29.5479 2.98266 28.4717 0.0791016 26.6038C0.607039 26.6647 1.1146 26.685 1.66285 26.685C4.72879 26.685 7.55116 25.6495 9.80498 23.883C6.92173 23.822 4.50548 21.9337 3.67298 19.3347C4.0791 19.3956 4.48516 19.4362 4.9116 19.4362C5.50041 19.4362 6.08929 19.355 6.63748 19.2129C3.63241 18.6037 1.37854 15.9642 1.37854 12.7764V12.6952C2.2516 13.1825 3.26691 13.487 4.34298 13.5276C2.57648 12.3499 1.41916 10.3398 1.41916 8.06567C1.41916 6.84742 1.74398 5.73067 2.31254 4.75604C5.54098 8.73573 10.3938 11.3347 15.8354 11.619C15.7339 11.1317 15.6729 10.6241 15.6729 10.1165C15.6729 6.50223 18.5968 3.55811 22.2313 3.55811C24.1196 3.55811 25.8252 4.34998 27.0232 5.62917C28.5054 5.34492 29.9267 4.79667 31.1856 4.04542C30.6982 5.56829 29.6627 6.84748 28.3023 7.65961C29.6222 7.51754 30.9013 7.15198 32.079 6.64442C31.1857 7.94386 30.0689 9.10117 28.7897 10.0352Z" fill="white"/>
</svg>
