<svg width="29" height="33" viewBox="0 0 29 33" fill="none" xmlns="http://www.w3.org/2000/svg">
<path d="M6.52046 28.5526H0.71546V9.85885H6.52046V28.5526ZM3.61484 7.30885C1.75859 7.30885 0.25296 5.77135 0.25296 3.9151C0.25296 3.02347 0.607157 2.16837 1.23763 1.53789C1.8681 0.907419 2.72321 0.553223 3.61484 0.553223C4.50646 0.553223 5.36157 0.907419 5.99204 1.53789C6.62251 2.16837 6.97671 3.02347 6.97671 3.9151C6.97671 5.77135 5.47046 7.30885 3.61484 7.30885ZM28.2467 28.5526H22.4542V19.4526C22.4542 17.2838 22.4105 14.5026 19.4361 14.5026C16.418 14.5026 15.9555 16.8588 15.9555 19.2963V28.5526H10.1567V9.85885H15.7242V12.4088H15.8055C16.5805 10.9401 18.4736 9.3901 21.298 9.3901C27.173 9.3901 28.253 13.2588 28.253 18.2838V28.5526H28.2467Z" fill="white"/>
</svg>
