<svg width="37" height="33" viewBox="0 0 37 33" fill="none" xmlns="http://www.w3.org/2000/svg">
<path d="M34.6867 8.30841C34.2942 6.83029 33.1375 5.66616 31.669 5.2711C29.0071 4.55322 18.3333 4.55322 18.3333 4.55322C18.3333 4.55322 7.65954 4.55322 4.9976 5.2711C3.52904 5.66622 2.37241 6.83029 1.97985 8.30841C1.2666 10.9876 1.2666 16.5775 1.2666 16.5775C1.2666 16.5775 1.2666 22.1673 1.97985 24.8465C2.37241 26.3247 3.52904 27.4403 4.9976 27.8353C7.65954 28.5532 18.3333 28.5532 18.3333 28.5532C18.3333 28.5532 29.007 28.5532 31.669 27.8353C33.1375 27.4403 34.2942 26.3247 34.6867 24.8465C35.4 22.1673 35.4 16.5775 35.4 16.5775C35.4 16.5775 35.4 10.9876 34.6867 8.30841ZM14.8424 21.6527V11.5023L23.7635 16.5776L14.8424 21.6527Z" fill="white"/>
</svg>
