<svg width="29" height="33" viewBox="0 0 29 33" fill="none" xmlns="http://www.w3.org/2000/svg">
<path d="M14.1786 9.36494C10.2036 9.36494 6.99732 12.5712 6.99732 16.5462C6.99732 20.5212 10.2036 23.7274 14.1786 23.7274C18.1536 23.7274 21.3598 20.5212 21.3598 16.5462C21.3598 12.5712 18.1536 9.36494 14.1786 9.36494ZM14.1786 21.2149C11.6098 21.2149 9.50982 19.1212 9.50982 16.5462C9.50982 13.9712 11.6036 11.8774 14.1786 11.8774C16.7536 11.8774 18.8473 13.9712 18.8473 16.5462C18.8473 19.1212 16.7473 21.2149 14.1786 21.2149ZM23.3286 9.07119C23.3286 10.0024 22.5786 10.7462 21.6536 10.7462C20.7223 10.7462 19.9786 9.99619 19.9786 9.07119C19.9786 8.14619 20.7286 7.39619 21.6536 7.39619C22.5786 7.39619 23.3286 8.14619 23.3286 9.07119ZM28.0848 10.7712C27.9786 8.52744 27.4661 6.53994 25.8223 4.90244C24.1848 3.26494 22.1973 2.75244 19.9536 2.63994C17.6411 2.50869 10.7098 2.50869 8.39732 2.63994C6.15982 2.74619 4.17232 3.25869 2.52857 4.89619C0.884821 6.53369 0.378571 8.52119 0.266071 10.7649C0.134821 13.0774 0.134821 20.0087 0.266071 22.3212C0.372321 24.5649 0.884821 26.5524 2.52857 28.1899C4.17232 29.8274 6.15357 30.3399 8.39732 30.4524C10.7098 30.5837 17.6411 30.5837 19.9536 30.4524C22.1973 30.3462 24.1848 29.8337 25.8223 28.1899C27.4598 26.5524 27.9723 24.5649 28.0848 22.3212C28.2161 20.0087 28.2161 13.0837 28.0848 10.7712ZM25.0973 24.8024C24.6098 26.0274 23.6661 26.9712 22.4348 27.4649C20.5911 28.1962 16.2161 28.0274 14.1786 28.0274C12.1411 28.0274 7.75982 28.1899 5.92232 27.4649C4.69732 26.9774 3.75357 26.0337 3.25982 24.8024C2.52857 22.9587 2.69732 18.5837 2.69732 16.5462C2.69732 14.5087 2.53482 10.1274 3.25982 8.28994C3.74732 7.06494 4.69107 6.12119 5.92232 5.62744C7.76607 4.89619 12.1411 5.06494 14.1786 5.06494C16.2161 5.06494 20.5973 4.90244 22.4348 5.62744C23.6598 6.11494 24.6036 7.05869 25.0973 8.28994C25.8286 10.1337 25.6598 14.5087 25.6598 16.5462C25.6598 18.5837 25.8286 22.9649 25.0973 24.8024Z" fill="white"/>
</svg>
