<svg width="179" height="46" viewBox="0 0 179 46" fill="none" xmlns="http://www.w3.org/2000/svg">
<path d="M34.9597 24.8995C34.9597 28.068 34.3842 30.8966 33.2333 33.3885C32.0823 35.8805 30.5227 37.9928 28.5576 39.7256C26.5892 41.4584 24.3103 42.7885 21.7174 43.716C19.1212 44.6468 16.3812 45.1088 13.4941 45.1088H2.88715C1.29153 45.1088 0 43.8051 0 42.1944V7.60121C0 5.99053 1.29153 4.68681 2.88715 4.68681H13.4941C16.3812 4.68681 19.1212 5.15218 21.7174 6.07964C24.3103 7.0104 26.5925 8.34053 28.5576 10.07C30.5227 11.8028 32.0823 13.9152 33.2333 16.4071C34.3842 18.899 34.9597 21.7276 34.9597 24.8962V24.8995ZM25.2323 24.8995C25.2323 22.9587 24.8857 21.2457 24.1958 19.7671C23.5059 18.2884 22.574 17.054 21.4035 16.0606C20.2329 15.0671 18.8727 14.3278 17.3229 13.8426C15.7731 13.3574 14.1219 13.1132 12.366 13.1132H9.35463V36.6825H12.366C14.1219 36.6825 15.7763 36.4416 17.3229 35.9531C18.8695 35.4679 20.2297 34.7286 21.4035 33.7351C22.574 32.7416 23.5059 31.5171 24.1958 30.0616C24.8857 28.6027 25.2323 26.8831 25.2323 24.8995Z" fill="#009C76"/>
<path d="M66.5287 26.926C66.5287 26.926 66.5287 26.9458 66.5287 26.9557C66.5254 28.6027 65.8224 30.1672 64.6584 31.3224C63.2819 32.6888 61.4312 33.4512 59.5021 33.4512H49.2189C48.7676 33.4512 48.457 33.9199 48.6401 34.3358C48.7938 34.6824 48.9802 35.0322 49.2058 35.3854C49.6243 36.0422 50.1802 36.6198 50.8701 37.1281C51.56 37.6364 52.3872 38.0588 53.3485 38.3955C54.3098 38.7355 55.4182 38.9038 56.6738 38.9038C58.3054 38.9038 59.78 38.7123 61.0977 38.3328L61.1369 38.3229C62.9026 37.8113 64.6192 39.2668 64.423 41.1119V41.1218C64.1908 43.277 62.6279 45.0494 60.532 45.5247C59.1293 45.8416 57.4879 46 55.6046 46C53.2602 46 51.0859 45.6402 49.0783 44.924C47.0707 44.2078 45.3116 43.1714 43.8075 41.8182C42.3002 40.4683 41.1198 38.851 40.2599 36.9729C39.4032 35.0949 38.9716 32.9727 38.9716 30.6062C38.9716 28.2397 39.3672 26.1933 40.1651 24.3351C40.9596 22.4769 42.0386 20.8926 43.3988 19.5823C44.759 18.2752 46.3284 17.2686 48.1072 16.5721C49.8859 15.8757 51.779 15.5259 53.7866 15.5259C55.7942 15.5259 57.5206 15.8427 59.0901 16.4764C60.6596 17.1101 61.9969 17.9551 63.1086 19.0113C64.217 20.0674 65.0639 21.2821 65.6491 22.6551C66.2344 24.0281 66.5287 25.454 66.5287 26.9326V26.926ZM58.119 26.8633C58.119 25.7213 57.7332 24.7212 56.9583 23.8532C56.1833 22.9884 55.1272 22.5528 53.7899 22.5528C52.4526 22.5528 51.184 23.0083 50.118 23.9159C49.2646 24.642 48.6434 25.553 48.2608 26.6422C48.1137 27.058 48.4178 27.4937 48.8527 27.4937H57.501C57.8443 27.4937 58.119 27.2132 58.119 26.8699V26.86V26.8633Z" fill="#009C76"/>
<path d="M81.9388 44.3332C81.0429 45.7525 79.2348 46.3202 77.7307 45.5973C77.7209 45.594 77.7111 45.5874 77.7013 45.5841C76.6975 45.0989 75.7754 44.4223 74.9384 43.5576C74.1013 42.6928 73.4212 41.6268 72.8981 40.3593C72.3749 39.0919 72.1133 37.6364 72.1133 35.9861V3.38308C72.1133 1.51496 73.6141 0 75.4648 0H77.8615C79.7121 0 81.2129 1.51496 81.2129 3.38308V35.2897C81.2129 36.6429 81.5595 37.6958 82.2494 38.4582C82.3148 38.5308 82.3802 38.6001 82.4489 38.6661C83.5606 39.7652 83.7143 41.5211 82.8772 42.848L81.9388 44.3365V44.3332Z" fill="#009C76"/>
<path d="M115.61 26.926C115.61 26.926 115.61 26.9458 115.61 26.9557C115.607 28.6027 114.904 30.1672 113.74 31.3224C112.363 32.6888 110.513 33.4512 108.584 33.4512H97.4078C97.5745 34.085 97.8688 34.7286 98.2873 35.3854C98.7059 36.0422 99.2617 36.6198 99.9516 37.1281C100.642 37.6364 101.469 38.0588 102.43 38.3955C103.391 38.7355 104.5 38.9038 105.755 38.9038C107.387 38.9038 108.862 38.7123 110.179 38.3328L110.218 38.3229C111.984 37.8113 113.701 39.2668 113.505 41.1119C113.276 43.2572 111.739 45.0395 109.656 45.5148C109.643 45.5148 109.627 45.5214 109.614 45.5247C108.211 45.8416 106.569 46 104.686 46C102.342 46 100.167 45.6402 98.1598 44.924C96.1522 44.2078 94.3931 43.1714 92.889 41.8182C91.3817 40.4683 90.2013 38.851 89.3414 36.9729C88.4847 35.0949 88.0531 32.9727 88.0531 30.6062C88.0531 28.2397 88.4488 26.1933 89.2466 24.3351C90.0411 22.4769 91.1201 20.8926 92.4803 19.5823C93.8405 18.2752 95.41 17.2686 97.1887 16.5721C98.9674 15.8757 100.861 15.5259 102.868 15.5259C104.876 15.5259 106.602 15.8427 108.172 16.4764C109.741 17.1101 111.078 17.9551 112.19 19.0113C113.299 20.0674 114.145 21.2821 114.731 22.6551C115.316 24.0281 115.61 25.454 115.61 26.9326V26.926ZM107.201 26.8633C107.201 25.7213 106.815 24.7212 106.04 23.8532C105.265 22.9884 104.209 22.5528 102.871 22.5528C101.534 22.5528 100.266 23.0083 99.1996 23.9159C98.1337 24.8236 97.4307 26.0184 97.0972 27.4937H107.138C107.181 27.3683 107.201 27.1571 107.201 26.86V26.8633Z" fill="#009C76"/>
<path d="M143.612 22.1336C143.465 23.6981 141.938 24.7675 140.45 24.3054C139.146 23.8994 137.749 23.6981 136.258 23.6981C134.123 23.6981 132.315 24.3219 130.831 25.5662C129.346 26.8138 128.604 28.5334 128.604 30.7283C128.604 31.8274 128.823 32.8076 129.265 33.6757C129.703 34.5404 130.288 35.2831 131.024 35.8937C131.756 36.5076 132.613 36.9829 133.597 37.3195C134.578 37.6595 135.614 37.8278 136.703 37.8278C137.959 37.8278 139.139 37.6958 140.251 37.4317C140.261 37.4317 140.274 37.4251 140.283 37.4251C141.954 37.0225 143.53 38.3559 143.373 40.0821L143.118 42.9041C143.03 43.8843 142.386 44.7326 141.461 45.0428C140.882 45.2376 140.251 45.4092 139.561 45.5577C138.201 45.8515 136.706 46 135.072 46C132.979 46 130.991 45.6501 129.108 44.9537C127.224 44.2573 125.55 43.244 124.085 41.9139C122.62 40.5838 121.46 38.9896 120.603 37.1314C119.746 35.2732 119.318 33.1608 119.318 30.7943C119.318 28.4278 119.746 26.2956 120.603 24.3945C121.46 22.4934 122.611 20.8893 124.056 19.579C125.501 18.2719 127.172 17.2653 129.078 16.5688C130.981 15.8724 132.959 15.5226 135.009 15.5226C136.893 15.5226 138.586 15.7041 140.094 16.0606C140.888 16.2487 141.631 16.4764 142.32 16.7438C143.354 17.1431 143.988 18.2026 143.883 19.3149L143.619 22.1336H143.612Z" fill="#009C76"/>
<path d="M179 30.791C179 33.0288 178.591 35.0784 177.777 36.9366C176.96 38.7949 175.861 40.4022 174.481 41.7522C173.101 43.1054 171.47 44.1484 169.587 44.8877C167.703 45.627 165.696 45.9967 163.56 45.9967C161.425 45.9967 159.418 45.627 157.534 44.8877C155.651 44.1484 154.01 43.1054 152.607 41.7522C151.204 40.4022 150.096 38.7949 149.282 36.9366C148.464 35.0784 148.059 33.0321 148.059 30.791C148.059 28.5499 148.467 26.4937 149.282 24.6123C150.099 22.7343 151.204 21.117 152.607 19.7671C154.01 18.4172 155.651 17.3709 157.534 16.6316C159.418 15.8922 161.425 15.5226 163.56 15.5226C165.696 15.5226 167.703 15.8922 169.587 16.6316C171.47 17.3709 173.101 18.4172 174.481 19.7671C175.861 21.1203 176.96 22.7343 177.777 24.6123C178.595 26.4937 179 28.5499 179 30.791ZM170.149 30.791C170.149 29.7348 169.969 28.7545 169.616 27.8436C169.26 26.9359 168.779 26.1438 168.171 25.4672C167.563 24.7939 166.863 24.2757 166.068 23.9159C165.274 23.5561 164.437 23.3779 163.557 23.3779C162.678 23.3779 161.841 23.5561 161.03 23.9093C160.219 24.2625 159.496 24.7939 158.914 25.4672C158.332 26.1405 157.858 26.9359 157.502 27.8436C157.145 28.7512 156.969 29.7348 156.969 30.791C156.969 31.8472 157.145 32.8175 157.502 33.7054C157.855 34.5932 158.329 35.3623 158.914 36.0191C159.499 36.6759 160.202 37.1809 161.017 37.5406C161.834 37.9004 162.681 38.0786 163.557 38.0786C164.433 38.0786 165.274 37.9004 166.068 37.5406C166.863 37.1809 167.563 36.6759 168.171 36.0191C168.776 35.3656 169.26 34.5932 169.616 33.7054C169.972 32.8175 170.149 31.8472 170.149 30.791Z" fill="#009C76"/>
</svg>
