<svg width="141" height="38" viewBox="0 0 141 38" fill="none" xmlns="http://www.w3.org/2000/svg">
<mask id="mask0_4059_3654" style="mask-type:luminance" maskUnits="userSpaceOnUse" x="0" y="4" width="28" height="34">
<path d="M0 4.31902H27.8195V37.1053H0V4.31902Z" fill="white"/>
</mask>
<g mask="url(#mask0_4059_3654)">
<path d="M27.5394 20.5597C27.5394 23.1065 27.0858 25.3784 26.1799 27.3795C25.2728 29.382 24.0441 31.0789 22.4966 32.4717C20.9464 33.8631 19.1507 34.9317 17.1082 35.6775C15.0631 36.4246 12.9045 36.7954 10.6299 36.7954H2.2746C1.0179 36.7954 0 35.7482 0 34.4541V6.66261C0 5.36989 1.0179 4.32131 2.2746 4.32131H10.6299C12.9045 4.32131 15.0631 4.69618 17.1082 5.4406C19.1507 6.18902 20.9477 7.25761 22.4966 8.64639C24.0441 10.0392 25.2728 11.7361 26.1799 13.7372C27.0858 15.7397 27.5394 18.0116 27.5394 20.557V20.5597ZM19.8764 20.5597C19.8764 19.0015 19.6043 17.6247 19.06 16.4374C18.517 15.2487 17.7833 14.2575 16.8614 13.4597C15.9382 12.6606 14.867 12.067 13.6463 11.6774C12.4256 11.2879 11.1249 11.0918 9.74144 11.0918H7.36945V30.0263H9.74144C11.1249 30.0263 12.4283 29.8329 13.6463 29.4407C14.8643 29.0511 15.9356 28.4561 16.8614 27.6583C17.7833 26.8606 18.517 25.876 19.06 24.7074C19.6043 23.5347 19.8764 22.1539 19.8764 20.5597Z" fill="white"/>
</g>
<mask id="mask1_4059_3654" style="mask-type:luminance" maskUnits="userSpaceOnUse" x="30" y="12" width="23" height="26">
<path d="M30.5499 12.8567H52.4074V37.4411H30.5499V12.8567Z" fill="white"/>
</mask>
<g mask="url(#mask1_4059_3654)">
<path d="M52.4061 22.1889C52.4061 22.1889 52.4061 22.2049 52.4061 22.2129C52.4047 23.535 51.8497 24.793 50.9332 25.7202C49.8486 26.8182 48.3918 27.4305 46.871 27.4305H38.7718C38.4156 27.4305 38.1714 27.8067 38.3155 28.1416C38.4369 28.4204 38.5837 28.7005 38.7611 28.9847C39.0906 29.5117 39.5282 29.9759 40.0725 30.3841C40.6155 30.7924 41.2665 31.1326 42.0243 31.4034C42.782 31.6755 43.6545 31.8116 44.6431 31.8116C45.9291 31.8116 47.0911 31.6569 48.129 31.3527L48.1597 31.3447C49.5498 30.9338 50.9025 32.1024 50.7478 33.5846V33.5926C50.565 35.3242 49.3337 36.749 47.6834 37.1306C46.5775 37.3854 45.2847 37.5121 43.8012 37.5121C41.9549 37.5121 40.2419 37.2226 38.661 36.6476C37.0788 36.0727 35.6927 35.2402 34.5081 34.1529C33.3207 33.0683 32.3909 31.7689 31.7145 30.2601C31.0395 28.7512 30.6993 27.0463 30.6993 25.1452C30.6993 23.2442 31.0114 21.6006 31.6398 20.1077C32.2655 18.6149 33.1153 17.3409 34.1865 16.2883C35.2578 15.2384 36.4945 14.4299 37.8953 13.8709C39.2961 13.3106 40.7876 13.0305 42.3698 13.0305C43.9507 13.0305 45.3101 13.2839 46.5468 13.7936C47.7835 14.3032 48.8374 14.9822 49.7125 15.8307C50.5864 16.6792 51.2534 17.6544 51.7137 18.7577C52.1753 19.8609 52.4061 21.0056 52.4061 22.1942V22.1889ZM45.7824 22.1382C45.7824 21.2204 45.4782 20.4173 44.8672 19.7195C44.2575 19.0258 43.425 18.6749 42.3724 18.6749C41.3185 18.6749 40.3193 19.0418 39.4788 19.7702C38.8078 20.3532 38.3182 21.0856 38.0167 21.9608C37.9006 22.2943 38.1408 22.6452 38.4823 22.6452H45.2954C45.5662 22.6452 45.7824 22.4197 45.7824 22.1435V22.1355V22.1382Z" fill="white"/>
</g>
<mask id="mask2_4059_3654" style="mask-type:luminance" maskUnits="userSpaceOnUse" x="56" y="0" width="10" height="38">
<path d="M56.5078 0.557186H65.729V37.4418H56.5078V0.557186Z" fill="white"/>
</mask>
<g mask="url(#mask2_4059_3654)">
<path d="M64.546 36.1731C63.8403 37.3137 62.4155 37.77 61.2308 37.1896C61.2228 37.187 61.2148 37.1816 61.2081 37.179C60.417 36.7881 59.6899 36.2451 59.0309 35.5501C58.3719 34.855 57.8356 33.9999 57.4233 32.9806C57.0111 31.9627 56.8057 30.7927 56.8057 29.468V3.2747C56.8057 1.77387 57.9877 0.557186 59.4458 0.557186H61.3335C62.7917 0.557186 63.9737 1.77387 63.9737 3.2747V28.9077C63.9737 29.995 64.2472 30.8408 64.7901 31.4531C64.8421 31.5118 64.8928 31.5678 64.9475 31.6212C65.8227 32.5044 65.9441 33.9145 65.2851 34.9804L64.546 36.1757V36.1731Z" fill="white"/>
</g>
<mask id="mask3_4059_3654" style="mask-type:luminance" maskUnits="userSpaceOnUse" x="69" y="12" width="23" height="26">
<path d="M69.1424 12.8582H91.3415V37.4426H69.1424V12.8582Z" fill="white"/>
</mask>
<g mask="url(#mask3_4059_3654)">
<path d="M91.0678 22.1899C91.0678 22.1899 91.0678 22.2059 91.0678 22.2139C91.0665 23.536 90.5115 24.794 89.595 25.7212C88.5104 26.8191 87.0536 27.4315 85.5327 27.4315H76.7291C76.8612 27.9411 77.0933 28.4574 77.4229 28.9857C77.7524 29.5126 78.19 29.9769 78.7343 30.3851C79.2772 30.7934 79.9283 31.1335 80.686 31.4044C81.4438 31.6765 82.3163 31.8126 83.3048 31.8126C84.5909 31.8126 85.7528 31.6578 86.7908 31.3537L86.8214 31.3457C88.2115 30.9348 89.5643 32.1034 89.4096 33.5856C89.2295 35.3092 88.0194 36.742 86.3785 37.1236C86.3679 37.1236 86.3545 37.1289 86.3452 37.1316C85.2392 37.3864 83.9465 37.5131 82.463 37.5131C80.6166 37.5131 78.9037 37.2236 77.3228 36.6486C75.7406 36.0736 74.3545 35.2412 73.1698 34.1539C71.9825 33.0693 71.0526 31.7699 70.3763 30.2611C69.7012 28.7522 69.361 27.0473 69.361 25.1462C69.361 23.2451 69.6732 21.6016 70.3015 20.1087C70.9272 18.6159 71.777 17.3418 72.8483 16.2893C73.9196 15.2393 75.1563 14.4309 76.557 13.8719C77.9578 13.3116 79.4493 13.0314 81.0315 13.0314C82.6124 13.0314 83.9718 13.2849 85.2085 13.7945C86.4452 14.3041 87.4992 14.9832 88.3743 15.8317C89.2468 16.6801 89.9138 17.6554 90.3754 18.7586C90.837 19.8619 91.0678 21.0066 91.0678 22.1952V22.1899ZM84.4441 22.1392C84.4441 21.2213 84.1399 20.4182 83.5289 19.7205C82.9193 19.0268 82.0868 18.6759 81.0342 18.6759C79.9803 18.6759 78.9811 19.0428 78.1419 19.7712C77.3015 20.5009 76.7478 21.4601 76.485 22.6461H84.3948C84.4281 22.5447 84.4441 22.3753 84.4441 22.1365V22.1392Z" fill="white"/>
</g>
<mask id="mask4_4059_3654" style="mask-type:luminance" maskUnits="userSpaceOnUse" x="93" y="12" width="21" height="26">
<path d="M93.7323 12.8574H113.541V37.4417H93.7323V12.8574Z" fill="white"/>
</mask>
<g mask="url(#mask4_4059_3654)">
<path d="M113.127 18.3392C113.011 19.5959 111.807 20.4551 110.635 20.0842C109.609 19.7573 108.508 19.5959 107.334 19.5959C105.652 19.5959 104.227 20.0975 103.058 21.0968C101.888 22.0987 101.304 23.4808 101.304 25.2431C101.304 26.1262 101.476 26.9147 101.824 27.6111C102.168 28.3061 102.63 28.9024 103.209 29.3934C103.787 29.887 104.462 30.2685 105.237 30.5394C106.011 30.8115 106.826 30.9476 107.684 30.9476C108.672 30.9476 109.602 30.8409 110.478 30.6287C110.486 30.6287 110.496 30.6234 110.504 30.6234C111.821 30.3006 113.063 31.3718 112.937 32.7579L112.737 35.0259C112.668 35.813 112.159 36.4947 111.431 36.7442C110.975 36.9002 110.478 37.0377 109.934 37.1577C108.863 37.3939 107.686 37.5126 106.398 37.5126C104.75 37.5126 103.184 37.2311 101.7 36.6721C100.217 36.1131 98.8987 35.298 97.7447 34.2294C96.5907 33.1608 95.6755 31.8801 95.0018 30.3873C94.3268 28.8944 93.9893 27.1975 93.9893 25.2964C93.9893 23.3954 94.3268 21.6824 95.0018 20.1549C95.6755 18.6274 96.5827 17.3387 97.7207 16.2861C98.86 15.2362 100.175 14.4277 101.678 13.8687C103.176 13.3084 104.734 13.0283 106.349 13.0283C107.833 13.0283 109.167 13.1737 110.354 13.4605C110.98 13.6112 111.566 13.794 112.109 14.0088C112.922 14.3303 113.421 15.1815 113.34 16.074L113.131 18.3392H113.127Z" fill="white"/>
</g>
<mask id="mask5_4059_3654" style="mask-type:luminance" maskUnits="userSpaceOnUse" x="116" y="12" width="26" height="26">
<path d="M116.613 12.8584H141.001V37.4428H116.613V12.8584Z" fill="white"/>
</mask>
<g mask="url(#mask5_4059_3654)">
<path d="M141.002 25.2949C141.002 27.0932 140.681 28.7395 140.039 30.2323C139.395 31.7252 138.529 33.0166 137.443 34.1012C136.356 35.1884 135.071 36.0262 133.588 36.6199C132.104 37.2136 130.522 37.5111 128.84 37.5111C127.159 37.5111 125.576 37.2136 124.094 36.6199C122.609 36.0262 121.317 35.1884 120.212 34.1012C119.108 33.0166 118.234 31.7252 117.592 30.2323C116.948 28.7395 116.629 27.0959 116.629 25.2949C116.629 23.4952 116.952 21.8423 117.592 20.3321C118.236 18.8233 119.108 17.5239 120.212 16.4393C121.317 15.3547 122.609 14.5142 124.094 13.9206C125.576 13.3256 127.159 13.0294 128.84 13.0294C130.522 13.0294 132.104 13.3256 133.588 13.9206C135.071 14.5142 136.356 15.3547 137.443 16.4393C138.529 17.5266 139.395 18.8233 140.039 20.3321C140.684 21.8423 141.002 23.4952 141.002 25.2949ZM134.031 25.2949C134.031 24.4464 133.888 23.6593 133.61 22.9269C133.33 22.1985 132.951 21.5622 132.472 21.0179C131.993 20.4776 131.441 20.0613 130.817 19.7718C130.19 19.4823 129.531 19.3396 128.837 19.3396C128.145 19.3396 127.486 19.4823 126.846 19.7665C126.207 20.0506 125.639 20.4776 125.18 21.0179C124.721 21.5595 124.349 22.1985 124.068 22.9269C123.786 23.6567 123.647 24.4464 123.647 25.2949C123.647 26.1434 123.786 26.9238 124.068 27.6362C124.345 28.3499 124.719 28.9676 125.18 29.4959C125.64 30.0229 126.195 30.4284 126.836 30.7179C127.48 31.0074 128.147 31.1502 128.837 31.1502C129.528 31.1502 130.19 31.0074 130.817 30.7179C131.441 30.4284 131.993 30.0229 132.472 29.4959C132.949 28.9703 133.33 28.3499 133.61 27.6362C133.89 26.9238 134.031 26.1434 134.031 25.2949Z" fill="white"/>
</g>
</svg>
