<svg width="40" height="40" viewBox="0 0 40 40" fill="none" xmlns="http://www.w3.org/2000/svg">
<rect width="40" height="40" rx="11.7647" fill="#F1F9F7"/>
<g clip-path="url(#clip0_4385_9798)">
<path d="M20.3158 21.659C21.8324 21.659 23.234 21.2316 24.3553 20.5055C25.2239 19.9495 26.3544 20.0414 27.1173 20.7353C29.2359 22.6563 30.4399 25.3814 30.4353 28.2445V29.4715C30.4353 30.7399 29.4059 31.7647 28.1375 31.7647H12.4941C11.2258 31.7647 10.1963 30.7399 10.1963 29.4715V28.2445C10.1872 25.386 11.3912 22.6563 13.5098 20.7399C14.2726 20.046 15.4077 19.9541 16.2717 20.5101C17.3976 21.2316 18.7947 21.659 20.3158 21.659Z" fill="#009C76"/>
<path d="M20.3153 19.614C23.4574 19.614 26.0046 17.0668 26.0046 13.9247C26.0046 10.7826 23.4574 8.23535 20.3153 8.23535C17.1732 8.23535 14.626 10.7826 14.626 13.9247C14.626 17.0668 17.1732 19.614 20.3153 19.614Z" fill="#009C76"/>
</g>
<defs>
<clipPath id="clip0_4385_9798">
<rect width="23.5294" height="23.5294" fill="white" transform="translate(8.23535 8.23535)"/>
</clipPath>
</defs>
</svg>
