<svg width="34" height="34" viewBox="0 0 34 34" fill="none" xmlns="http://www.w3.org/2000/svg">
<rect width="34" height="34" rx="10" fill="#F1F9F7"/>
<path d="M13.6263 12.9512L13.6262 12.9513C13.3335 13.2644 12.8422 13.2819 12.5284 12.9889M13.6263 12.9512L12.5284 12.9889M13.6263 12.9512L16.2237 10.1682M13.6263 12.9512L16.2237 10.1682M12.5284 12.9889L12.6296 12.8806L12.5284 12.9889C12.5284 12.9889 12.5284 12.9889 12.5284 12.9889ZM16.2237 10.1682V20.3114C16.2237 20.7405 16.5713 21.0881 17.0004 21.0881C17.4295 21.0881 17.777 20.7405 17.777 20.3114V10.1682L20.3744 12.9512L20.3745 12.9513C20.5275 13.1149 20.7349 13.1979 20.9424 13.1979C21.1322 13.1979 21.3224 13.1286 21.4722 12.989L21.4723 12.9889C21.7859 12.6961 21.8029 12.2048 21.51 11.8914L16.2237 10.1682ZM21.5099 11.8913L17.9792 8.10884C17.9791 8.1088 17.9791 8.10876 17.9791 8.10873C17.7268 7.83798 17.3702 7.68331 17.0004 7.68331C16.6305 7.68331 16.2738 7.83802 16.0216 8.10884L12.4907 11.8914L12.6004 11.9938L21.5099 11.8913ZM23.1735 15.3582H20.691C20.2619 15.3582 19.9144 15.7058 19.9144 16.1349C19.9144 16.564 20.2619 16.9115 20.691 16.9115H23.1735C23.6322 16.9115 24.0301 17.3283 24.0301 17.8715V23.8034C24.0301 24.3466 23.6322 24.7634 23.1735 24.7634H10.8272C10.3685 24.7634 9.97064 24.3466 9.97064 23.8034V17.8715C9.97064 17.3283 10.3685 16.9115 10.8272 16.9115H13.309C13.7381 16.9115 14.0856 16.564 14.0856 16.1349C14.0856 15.7058 13.7381 15.3582 13.309 15.3582H10.8272C9.49198 15.3582 8.41738 16.4921 8.41738 17.8715V23.8034C8.41738 25.1828 9.49198 26.3166 10.8272 26.3166H23.1735C24.5087 26.3166 25.5833 25.1828 25.5833 23.8034V17.8715C25.5833 16.4921 24.5087 15.3582 23.1735 15.3582Z" fill="#009C76" stroke="#009C76" stroke-width="0.3"/>
</svg>
