<svg width="64" height="64" viewBox="0 0 64 64" fill="none" xmlns="http://www.w3.org/2000/svg">
<path d="M56.1864 13.9493C51.8931 13.5226 47.5998 13.2026 43.2798 12.9626V12.9359L42.6931 9.46927C42.2931 7.01594 41.7064 3.33594 35.4664 3.33594H28.4798C22.2664 3.33594 21.6798 6.85594 21.2531 9.4426L20.6931 12.8559C18.2131 13.0159 15.7331 13.1759 13.2531 13.4159L7.8131 13.9493C6.6931 14.0559 5.8931 15.0426 5.99977 16.1359C6.10644 17.2293 7.06644 18.0293 8.18644 17.9226L13.6264 17.3893C27.5998 16.0026 41.6798 16.5359 55.8131 17.9493C55.8931 17.9493 55.9464 17.9493 56.0264 17.9493C57.0398 17.9493 57.9198 17.1759 58.0264 16.1359C58.1064 15.0426 57.3064 14.0559 56.1864 13.9493Z" fill="#FF4B55"/>
<path d="M51.2801 21.7041C50.6401 21.0374 49.7601 20.6641 48.8535 20.6641H15.1468C14.2401 20.6641 13.3335 21.0374 12.7201 21.7041C12.1068 22.3707 11.7601 23.2774 11.8135 24.2107L13.4668 51.5707C13.7601 55.6241 14.1335 60.6907 23.4401 60.6907H40.5601C49.8668 60.6907 50.2401 55.6507 50.5335 51.5707L52.1868 24.2374C52.2401 23.2774 51.8935 22.3707 51.2801 21.7041ZM36.4268 47.3307H27.5468C26.4535 47.3307 25.5468 46.4241 25.5468 45.3307C25.5468 44.2374 26.4535 43.3307 27.5468 43.3307H36.4268C37.5201 43.3307 38.4268 44.2374 38.4268 45.3307C38.4268 46.4241 37.5201 47.3307 36.4268 47.3307ZM38.6668 36.6641H25.3335C24.2401 36.6641 23.3335 35.7574 23.3335 34.6641C23.3335 33.5707 24.2401 32.6641 25.3335 32.6641H38.6668C39.7601 32.6641 40.6668 33.5707 40.6668 34.6641C40.6668 35.7574 39.7601 36.6641 38.6668 36.6641Z" fill="#FF4B55"/>
</svg>
