<svg width="20" height="21" viewBox="0 0 20 21" fill="none" xmlns="http://www.w3.org/2000/svg">
<path d="M17.5001 6.21289C17.4834 6.21289 17.4584 6.21289 17.4334 6.21289C13.0251 5.77122 8.62505 5.60455 4.26672 6.04622L2.56672 6.21289C2.21672 6.24622 1.90839 5.99622 1.87505 5.64622C1.84172 5.29622 2.09172 4.99622 2.43339 4.96289L4.13339 4.79622C8.56672 4.34622 13.0584 4.52122 17.5584 4.96289C17.9001 4.99622 18.1501 5.30455 18.1167 5.64622C18.0917 5.97122 17.8167 6.21289 17.5001 6.21289Z" fill="#ffff"/>
<path d="M7.08314 5.37148C7.0498 5.37148 7.01647 5.37148 6.9748 5.36315C6.64147 5.30482 6.40814 4.97982 6.46647 4.64648L6.6498 3.55482C6.78314 2.75482 6.96647 1.64648 8.90814 1.64648H11.0915C13.0415 1.64648 13.2248 2.79648 13.3498 3.56315L13.5331 4.64648C13.5915 4.98815 13.3581 5.31315 13.0248 5.36315C12.6831 5.42148 12.3581 5.18815 12.3081 4.85482L12.1248 3.77148C12.0081 3.04648 11.9831 2.90482 11.0998 2.90482H8.91647C8.03314 2.90482 8.01647 3.02148 7.89147 3.76315L7.6998 4.84648C7.6498 5.15482 7.38314 5.37148 7.08314 5.37148Z" fill="#ffff"/>
<path d="M12.675 19.5631H7.325C4.41666 19.5631 4.3 17.9548 4.20833 16.6548L3.66666 8.26313C3.64166 7.92147 3.90833 7.62147 4.25 7.59647C4.6 7.5798 4.89166 7.83813 4.91666 8.1798L5.45833 16.5715C5.55 17.8381 5.58333 18.3131 7.325 18.3131H12.675C14.425 18.3131 14.4583 17.8381 14.5417 16.5715L15.0833 8.1798C15.1083 7.83813 15.4083 7.5798 15.75 7.59647C16.0917 7.62147 16.3583 7.91313 16.3333 8.26313L15.7917 16.6548C15.7 17.9548 15.5833 19.5631 12.675 19.5631Z" fill="#ffff"/>
<path d="M11.3834 14.9805H8.6084C8.26673 14.9805 7.9834 14.6971 7.9834 14.3555C7.9834 14.0138 8.26673 13.7305 8.6084 13.7305H11.3834C11.7251 13.7305 12.0084 14.0138 12.0084 14.3555C12.0084 14.6971 11.7251 14.9805 11.3834 14.9805Z" fill="#ffff"/>
<path d="M12.0832 11.6465H7.9165C7.57484 11.6465 7.2915 11.3632 7.2915 11.0215C7.2915 10.6798 7.57484 10.3965 7.9165 10.3965H12.0832C12.4248 10.3965 12.7082 10.6798 12.7082 11.0215C12.7082 11.3632 12.4248 11.6465 12.0832 11.6465Z" fill="#ffff"/>
</svg>
