<svg width="19" height="20" viewBox="0 0 19 20" fill="none" xmlns="http://www.w3.org/2000/svg">
<path d="M16.6252 10.0003C16.4152 10.0003 16.2138 10.0881 16.0654 10.2444C15.9169 10.4006 15.8335 10.6126 15.8335 10.8336V15.8336C15.8335 16.0546 15.7501 16.2666 15.6016 16.4229C15.4532 16.5791 15.2518 16.6669 15.0418 16.6669H3.9585C3.74853 16.6669 3.54717 16.5791 3.3987 16.4229C3.25024 16.2666 3.16683 16.0546 3.16683 15.8336V4.16694C3.16683 3.94593 3.25024 3.73397 3.3987 3.57769C3.54717 3.42141 3.74853 3.33361 3.9585 3.33361H8.7085C8.91846 3.33361 9.11982 3.24581 9.26829 3.08953C9.41675 2.93325 9.50016 2.72129 9.50016 2.50027C9.50016 2.27926 9.41675 2.0673 9.26829 1.91102C9.11982 1.75474 8.91846 1.66694 8.7085 1.66694H3.9585C3.32861 1.66694 2.72452 1.93033 2.27912 2.39917C1.83372 2.86802 1.5835 3.5039 1.5835 4.16694V15.8336C1.5835 16.4966 1.83372 17.1325 2.27912 17.6014C2.72452 18.0702 3.32861 18.3336 3.9585 18.3336H15.0418C15.6717 18.3336 16.2758 18.0702 16.7212 17.6014C17.1666 17.1325 17.4168 16.4966 17.4168 15.8336V10.8336C17.4168 10.6126 17.3334 10.4006 17.185 10.2444C17.0365 10.0881 16.8351 10.0003 16.6252 10.0003ZM4.75016 10.6336V14.1669C4.75016 14.388 4.83357 14.5999 4.98204 14.7562C5.1305 14.9125 5.33187 15.0003 5.54183 15.0003H8.8985C9.00268 15.0009 9.10597 14.9799 9.20242 14.9384C9.29888 14.8969 9.38661 14.8358 9.46058 14.7586L14.9389 8.98361L17.1872 6.66694C17.2614 6.58947 17.3203 6.4973 17.3605 6.39576C17.4007 6.29421 17.4214 6.18528 17.4214 6.07527C17.4214 5.96526 17.4007 5.85634 17.3605 5.75479C17.3203 5.65324 17.2614 5.56108 17.1872 5.48361L13.8306 1.90861C13.757 1.8305 13.6694 1.76851 13.573 1.7262C13.4765 1.68389 13.373 1.66211 13.2685 1.66211C13.164 1.66211 13.0605 1.68389 12.964 1.7262C12.8676 1.76851 12.78 1.8305 12.7064 1.90861L10.4739 4.26694L4.97975 10.0419C4.90637 10.1198 4.84832 10.2122 4.80893 10.3137C4.76953 10.4152 4.74956 10.5239 4.75016 10.6336ZM13.2685 3.67527L15.5089 6.03361L14.3847 7.21694L12.1443 4.85861L13.2685 3.67527ZM6.3335 10.9753L11.0281 6.03361L13.2685 8.39194L8.57391 13.3336H6.3335V10.9753Z" fill="#fff"/>
</svg>
